  0
SECTION
  2
BLOCKS
  0
ENDSEC
  0
SECTION
  2
ENTITIES
  0
LINE
  8
0
 10
156.05
 20
3
 11
159.05
 21
0
  0
LINE
  8
0
 10
159.05
 20
0
 11
182.05
 21
0
  0
LINE
  8
0
 10
182.05
 20
0
 11
187
 21
4.94974
  0
LINE
  8
0
 10
187
 20
4.94974
 11
187
 21
20.7434
  0
LINE
  8
0
 10
187
 20
20.7434
 11
182.093
 21
25.6502
  0
LINE
  8
0
 10
182.093
 20
25.6502
 11
111.645
 21
25.6738
  0
LINE
  8
0
 10
111.645
 20
25.6738
 11
110.756
 21
25.8629
  0
LINE
  8
0
 10
110.756
 20
25.8629
 11
109.925
 21
26.2328
  0
LINE
  8
0
 10
109.925
 20
26.2328
 11
109.189
 21
26.7673
  0
LINE
  8
0
 10
109.189
 20
26.7673
 11
108.581
 21
27.4431
  0
LINE
  8
0
 10
108.581
 20
27.4431
 11
108.126
 21
28.2307
  0
LINE
  8
0
 10
108.126
 20
28.2307
 11
107.845
 21
29.0956
  0
LINE
  8
0
 10
107.845
 20
29.0956
 11
107.75
 21
30
  0
LINE
  8
0
 10
107.75
 20
30
 11
107.845
 21
30.9044
  0
LINE
  8
0
 10
107.845
 20
30.9044
 11
108.126
 21
31.7693
  0
LINE
  8
0
 10
108.126
 20
31.7693
 11
108.581
 21
32.5569
  0
LINE
  8
0
 10
108.581
 20
32.5569
 11
109.189
 21
33.2327
  0
LINE
  8
0
 10
109.189
 20
33.2327
 11
109.925
 21
33.7672
  0
LINE
  8
0
 10
109.925
 20
33.7672
 11
110.756
 21
34.1371
  0
LINE
  8
0
 10
110.756
 20
34.1371
 11
111.645
 21
34.3262
  0
LINE
  8
0
 10
111.645
 20
34.3262
 11
182.093
 21
34.3498
  0
LINE
  8
0
 10
182.093
 20
34.3498
 11
187
 21
39.2566
  0
LINE
  8
0
 10
187
 20
39.2566
 11
187
 21
47.3896
  0
LINE
  8
0
 10
187
 20
47.3896
 11
34.5028
 21
370
  0
LINE
  8
0
 10
34.5028
 20
370
 11
9.39999
 21
370
  0
LINE
  8
0
 10
9.39999
 20
370
 11
9.39999
 21
360.6
  0
LINE
  8
0
 10
9.39999
 20
360.6
 11
0
 21
360.6
  0
LINE
  8
0
 10
0
 20
360.6
 11
0
 21
351.8
  0
LINE
  8
0
 10
0
 20
351.8
 11
9.39999
 21
351.8
  0
LINE
  8
0
 10
9.39999
 20
351.8
 11
9.39999
 21
342.2
  0
LINE
  8
0
 10
9.39999
 20
342.2
 11
21.35
 21
342.2
  0
LINE
  8
0
 10
21.35
 20
342.2
 11
21.35
 21
344
  0
LINE
  8
0
 10
21.35
 20
344
 11
26.47
 21
344
  0
LINE
  8
0
 10
26.47
 20
344
 11
26.47
 21
342.2
  0
LINE
  8
0
 10
26.47
 20
342.2
 11
30.5
 21
342.2
  0
LINE
  8
0
 10
30.5
 20
342.2
 11
30.5
 21
337.8
  0
LINE
  8
0
 10
30.5
 20
337.8
 11
26.47
 21
337.8
  0
LINE
  8
0
 10
26.47
 20
337.8
 11
26.47
 21
336
  0
LINE
  8
0
 10
26.47
 20
336
 11
21.35
 21
336
  0
LINE
  8
0
 10
21.35
 20
336
 11
21.35
 21
337.8
  0
LINE
  8
0
 10
21.35
 20
337.8
 11
9.39999
 21
337.8
  0
LINE
  8
0
 10
9.39999
 20
337.8
 11
9.39999
 21
328.2
  0
LINE
  8
0
 10
9.39999
 20
328.2
 11
0
 21
328.2
  0
LINE
  8
0
 10
0
 20
328.2
 11
0
 21
319.6
  0
LINE
  8
0
 10
0
 20
319.6
 11
9.39999
 21
319.6
  0
LINE
  8
0
 10
9.39999
 20
319.6
 11
9.39999
 21
205.6
  0
LINE
  8
0
 10
9.39999
 20
205.6
 11
0
 21
205.6
  0
LINE
  8
0
 10
0
 20
205.6
 11
0
 21
196.8
  0
LINE
  8
0
 10
0
 20
196.8
 11
9.39999
 21
196.8
  0
LINE
  8
0
 10
9.39999
 20
196.8
 11
9.39999
 21
187.2
  0
LINE
  8
0
 10
9.39999
 20
187.2
 11
21.35
 21
187.2
  0
LINE
  8
0
 10
21.35
 20
187.2
 11
21.35
 21
189
  0
LINE
  8
0
 10
21.35
 20
189
 11
26.47
 21
189
  0
LINE
  8
0
 10
26.47
 20
189
 11
26.47
 21
187.2
  0
LINE
  8
0
 10
26.47
 20
187.2
 11
30.5
 21
187.2
  0
LINE
  8
0
 10
30.5
 20
187.2
 11
30.5
 21
182.8
  0
LINE
  8
0
 10
30.5
 20
182.8
 11
26.47
 21
182.8
  0
LINE
  8
0
 10
26.47
 20
182.8
 11
26.47
 21
181
  0
LINE
  8
0
 10
26.47
 20
181
 11
21.35
 21
181
  0
LINE
  8
0
 10
21.35
 20
181
 11
21.35
 21
182.8
  0
LINE
  8
0
 10
21.35
 20
182.8
 11
9.39999
 21
182.8
  0
LINE
  8
0
 10
9.39999
 20
182.8
 11
9.39999
 21
173.2
  0
LINE
  8
0
 10
9.39999
 20
173.2
 11
0
 21
173.2
  0
LINE
  8
0
 10
0
 20
173.2
 11
0
 21
164.45
  0
LINE
  8
0
 10
0
 20
164.45
 11
9.39999
 21
164.45
  0
LINE
  8
0
 10
9.39999
 20
164.45
 11
9.39999
 21
45.5
  0
LINE
  8
0
 10
9.39999
 20
45.5
 11
0
 21
45.5
  0
LINE
  8
0
 10
0
 20
45.5
 11
0
 21
36.8
  0
LINE
  8
0
 10
0
 20
36.8
 11
9.39999
 21
36.8
  0
LINE
  8
0
 10
9.39999
 20
36.8
 11
9.39999
 21
27.2
  0
LINE
  8
0
 10
9.39999
 20
27.2
 11
21.35
 21
27.2
  0
LINE
  8
0
 10
21.35
 20
27.2
 11
21.35
 21
29
  0
LINE
  8
0
 10
21.35
 20
29
 11
26.47
 21
29
  0
LINE
  8
0
 10
26.47
 20
29
 11
26.47
 21
27.2
  0
LINE
  8
0
 10
26.47
 20
27.2
 11
30.5
 21
27.2
  0
LINE
  8
0
 10
30.5
 20
27.2
 11
30.5
 21
22.8
  0
LINE
  8
0
 10
30.5
 20
22.8
 11
26.47
 21
22.8
  0
LINE
  8
0
 10
26.47
 20
22.8
 11
26.47
 21
21
  0
LINE
  8
0
 10
26.47
 20
21
 11
21.35
 21
21
  0
LINE
  8
0
 10
21.35
 20
21
 11
21.35
 21
22.8
  0
LINE
  8
0
 10
21.35
 20
22.8
 11
9.39999
 21
22.8
  0
LINE
  8
0
 10
9.39999
 20
22.8
 11
9.39999
 21
3
  0
LINE
  8
0
 10
9.39999
 20
3
 11
156.05
 21
3
  0
LINE
  8
0
 10
29.3
 20
6
 11
28.0639
 21
6.19577
  0
LINE
  8
0
 10
28.0639
 20
6.19577
 11
26.9489
 21
6.76393
  0
LINE
  8
0
 10
26.9489
 20
6.76393
 11
26.0639
 21
7.64885
  0
LINE
  8
0
 10
26.0639
 20
7.64885
 11
25.4958
 21
8.76393
  0
LINE
  8
0
 10
25.4958
 20
8.76393
 11
25.3
 21
10
  0
LINE
  8
0
 10
25.3
 20
10
 11
25.4958
 21
11.2361
  0
LINE
  8
0
 10
25.4958
 20
11.2361
 11
26.0639
 21
12.3511
  0
LINE
  8
0
 10
26.0639
 20
12.3511
 11
26.9489
 21
13.2361
  0
LINE
  8
0
 10
26.9489
 20
13.2361
 11
28.0639
 21
13.8042
  0
LINE
  8
0
 10
28.0639
 20
13.8042
 11
29.3
 21
14
  0
LINE
  8
0
 10
29.3
 20
14
 11
37.3
 21
14
  0
LINE
  8
0
 10
37.3
 20
14
 11
38.5361
 21
13.8042
  0
LINE
  8
0
 10
38.5361
 20
13.8042
 11
39.6511
 21
13.2361
  0
LINE
  8
0
 10
39.6511
 20
13.2361
 11
40.5361
 21
12.3511
  0
LINE
  8
0
 10
40.5361
 20
12.3511
 11
41.1042
 21
11.2361
  0
LINE
  8
0
 10
41.1042
 20
11.2361
 11
41.3
 21
10
  0
LINE
  8
0
 10
41.3
 20
10
 11
41.1042
 21
8.76393
  0
LINE
  8
0
 10
41.1042
 20
8.76393
 11
40.5361
 21
7.64885
  0
LINE
  8
0
 10
40.5361
 20
7.64885
 11
39.6511
 21
6.76393
  0
LINE
  8
0
 10
39.6511
 20
6.76393
 11
38.5361
 21
6.19577
  0
LINE
  8
0
 10
38.5361
 20
6.19577
 11
37.3
 21
6
  0
LINE
  8
0
 10
37.3
 20
6
 11
29.3
 21
6
  0
ENDSEC
  0
SECTION
  2
OBJECTS
  0
DICTIONARY
  0
ENDSEC
  0
EOF
