  0
SECTION
  2
BLOCKS
  0
ENDSEC
  0
SECTION
  2
ENTITIES
  0
LINE
  8
0
 10
376.5
 20
4.94974
 11
376.5
 21
365.05
  0
LINE
  8
0
 10
376.5
 20
365.05
 11
371.55
 21
370
  0
LINE
  8
0
 10
371.55
 20
370
 11
4.94974
 21
370
  0
LINE
  8
0
 10
4.94974
 20
370
 11
0
 21
365.05
  0
LINE
  8
0
 10
0
 20
365.05
 11
0
 21
4.94974
  0
LINE
  8
0
 10
0
 20
4.94974
 11
4.94974
 21
0
  0
LINE
  8
0
 10
4.94974
 20
0
 11
40.1998
 21
0
  0
LINE
  8
0
 10
40.1998
 20
0
 11
43.1997
 21
3
  0
LINE
  8
0
 10
43.1997
 20
3
 11
333.3
 21
3
  0
LINE
  8
0
 10
333.3
 20
3
 11
336.3
 21
0
  0
LINE
  8
0
 10
336.3
 20
0
 11
371.55
 21
0
  0
LINE
  8
0
 10
371.55
 20
0
 11
376.5
 21
4.94974
  0
LINE
  8
0
 10
9.38197
 20
358.098
 11
8.82443
 21
358.382
  0
LINE
  8
0
 10
8.82443
 20
358.382
 11
8.38197
 21
358.824
  0
LINE
  8
0
 10
8.38197
 20
358.824
 11
8.0979
 21
359.382
  0
LINE
  8
0
 10
8.0979
 20
359.382
 11
8
 21
360
  0
LINE
  8
0
 10
8
 20
360
 11
8.0979
 21
360.618
  0
LINE
  8
0
 10
8.0979
 20
360.618
 11
8.38197
 21
361.176
  0
LINE
  8
0
 10
8.38197
 20
361.176
 11
8.82443
 21
361.618
  0
LINE
  8
0
 10
8.82443
 20
361.618
 11
9.38197
 21
361.902
  0
LINE
  8
0
 10
9.38197
 20
361.902
 11
10
 21
362
  0
LINE
  8
0
 10
10
 20
362
 11
10.618
 21
361.902
  0
LINE
  8
0
 10
10.618
 20
361.902
 11
11.1756
 21
361.618
  0
LINE
  8
0
 10
11.1756
 20
361.618
 11
11.618
 21
361.176
  0
LINE
  8
0
 10
11.618
 20
361.176
 11
11.9021
 21
360.618
  0
LINE
  8
0
 10
11.9021
 20
360.618
 11
12
 21
360
  0
LINE
  8
0
 10
12
 20
360
 11
11.9021
 21
359.382
  0
LINE
  8
0
 10
11.9021
 20
359.382
 11
11.618
 21
358.824
  0
LINE
  8
0
 10
11.618
 20
358.824
 11
11.1756
 21
358.382
  0
LINE
  8
0
 10
11.1756
 20
358.382
 11
10.618
 21
358.098
  0
LINE
  8
0
 10
10.618
 20
358.098
 11
10
 21
358
  0
LINE
  8
0
 10
10
 20
358
 11
9.38197
 21
358.098
  0
LINE
  8
0
 10
29.382
 20
358.098
 11
28.8244
 21
358.382
  0
LINE
  8
0
 10
28.8244
 20
358.382
 11
28.382
 21
358.824
  0
LINE
  8
0
 10
28.382
 20
358.824
 11
28.0979
 21
359.382
  0
LINE
  8
0
 10
28.0979
 20
359.382
 11
28
 21
360
  0
LINE
  8
0
 10
28
 20
360
 11
28.0979
 21
360.618
  0
LINE
  8
0
 10
28.0979
 20
360.618
 11
28.382
 21
361.176
  0
LINE
  8
0
 10
28.382
 20
361.176
 11
28.8244
 21
361.618
  0
LINE
  8
0
 10
28.8244
 20
361.618
 11
29.382
 21
361.902
  0
LINE
  8
0
 10
29.382
 20
361.902
 11
30
 21
362
  0
LINE
  8
0
 10
30
 20
362
 11
30.618
 21
361.902
  0
LINE
  8
0
 10
30.618
 20
361.902
 11
31.1756
 21
361.618
  0
LINE
  8
0
 10
31.1756
 20
361.618
 11
31.618
 21
361.176
  0
LINE
  8
0
 10
31.618
 20
361.176
 11
31.9021
 21
360.618
  0
LINE
  8
0
 10
31.9021
 20
360.618
 11
32
 21
360
  0
LINE
  8
0
 10
32
 20
360
 11
31.9021
 21
359.382
  0
LINE
  8
0
 10
31.9021
 20
359.382
 11
31.618
 21
358.824
  0
LINE
  8
0
 10
31.618
 20
358.824
 11
31.1756
 21
358.382
  0
LINE
  8
0
 10
31.1756
 20
358.382
 11
30.618
 21
358.098
  0
LINE
  8
0
 10
30.618
 20
358.098
 11
30
 21
358
  0
LINE
  8
0
 10
30
 20
358
 11
29.382
 21
358.098
  0
LINE
  8
0
 10
345.882
 20
358.098
 11
345.324
 21
358.382
  0
LINE
  8
0
 10
345.324
 20
358.382
 11
344.882
 21
358.824
  0
LINE
  8
0
 10
344.882
 20
358.824
 11
344.598
 21
359.382
  0
LINE
  8
0
 10
344.598
 20
359.382
 11
344.5
 21
360
  0
LINE
  8
0
 10
344.5
 20
360
 11
344.598
 21
360.618
  0
LINE
  8
0
 10
344.598
 20
360.618
 11
344.882
 21
361.176
  0
LINE
  8
0
 10
344.882
 20
361.176
 11
345.324
 21
361.618
  0
LINE
  8
0
 10
345.324
 20
361.618
 11
345.882
 21
361.902
  0
LINE
  8
0
 10
345.882
 20
361.902
 11
346.5
 21
362
  0
LINE
  8
0
 10
346.5
 20
362
 11
347.118
 21
361.902
  0
LINE
  8
0
 10
347.118
 20
361.902
 11
347.676
 21
361.618
  0
LINE
  8
0
 10
347.676
 20
361.618
 11
348.118
 21
361.176
  0
LINE
  8
0
 10
348.118
 20
361.176
 11
348.402
 21
360.618
  0
LINE
  8
0
 10
348.402
 20
360.618
 11
348.5
 21
360
  0
LINE
  8
0
 10
348.5
 20
360
 11
348.402
 21
359.382
  0
LINE
  8
0
 10
348.402
 20
359.382
 11
348.118
 21
358.824
  0
LINE
  8
0
 10
348.118
 20
358.824
 11
347.676
 21
358.382
  0
LINE
  8
0
 10
347.676
 20
358.382
 11
347.118
 21
358.098
  0
LINE
  8
0
 10
347.118
 20
358.098
 11
346.5
 21
358
  0
LINE
  8
0
 10
346.5
 20
358
 11
345.882
 21
358.098
  0
LINE
  8
0
 10
365.882
 20
358.098
 11
365.324
 21
358.382
  0
LINE
  8
0
 10
365.324
 20
358.382
 11
364.882
 21
358.824
  0
LINE
  8
0
 10
364.882
 20
358.824
 11
364.598
 21
359.382
  0
LINE
  8
0
 10
364.598
 20
359.382
 11
364.5
 21
360
  0
LINE
  8
0
 10
364.5
 20
360
 11
364.598
 21
360.618
  0
LINE
  8
0
 10
364.598
 20
360.618
 11
364.882
 21
361.176
  0
LINE
  8
0
 10
364.882
 20
361.176
 11
365.324
 21
361.618
  0
LINE
  8
0
 10
365.324
 20
361.618
 11
365.882
 21
361.902
  0
LINE
  8
0
 10
365.882
 20
361.902
 11
366.5
 21
362
  0
LINE
  8
0
 10
366.5
 20
362
 11
367.118
 21
361.902
  0
LINE
  8
0
 10
367.118
 20
361.902
 11
367.676
 21
361.618
  0
LINE
  8
0
 10
367.676
 20
361.618
 11
368.118
 21
361.176
  0
LINE
  8
0
 10
368.118
 20
361.176
 11
368.402
 21
360.618
  0
LINE
  8
0
 10
368.402
 20
360.618
 11
368.5
 21
360
  0
LINE
  8
0
 10
368.5
 20
360
 11
368.402
 21
359.382
  0
LINE
  8
0
 10
368.402
 20
359.382
 11
368.118
 21
358.824
  0
LINE
  8
0
 10
368.118
 20
358.824
 11
367.676
 21
358.382
  0
LINE
  8
0
 10
367.676
 20
358.382
 11
367.118
 21
358.098
  0
LINE
  8
0
 10
367.118
 20
358.098
 11
366.5
 21
358
  0
LINE
  8
0
 10
366.5
 20
358
 11
365.882
 21
358.098
  0
LINE
  8
0
 10
39.5
 20
351.45
 11
39.5
 21
360.85
  0
LINE
  8
0
 10
39.5
 20
360.85
 11
49.7
 21
360.85
  0
LINE
  8
0
 10
49.7
 20
360.85
 11
49.7
 21
351.45
  0
LINE
  8
0
 10
49.7
 20
351.45
 11
39.5
 21
351.45
  0
LINE
  8
0
 10
326.8
 20
351.45
 11
326.8
 21
360.85
  0
LINE
  8
0
 10
326.8
 20
360.85
 11
337
 21
360.85
  0
LINE
  8
0
 10
337
 20
360.85
 11
337
 21
351.45
  0
LINE
  8
0
 10
337
 20
351.45
 11
326.8
 21
351.45
  0
LINE
  8
0
 10
44.0438
 20
338.288
 11
43.542
 21
338.544
  0
LINE
  8
0
 10
43.542
 20
338.544
 11
43.1438
 21
338.942
  0
LINE
  8
0
 10
43.1438
 20
338.942
 11
42.8881
 21
339.444
  0
LINE
  8
0
 10
42.8881
 20
339.444
 11
42.8
 21
340
  0
LINE
  8
0
 10
42.8
 20
340
 11
42.8881
 21
340.556
  0
LINE
  8
0
 10
42.8881
 20
340.556
 11
43.1438
 21
341.058
  0
LINE
  8
0
 10
43.1438
 20
341.058
 11
43.542
 21
341.456
  0
LINE
  8
0
 10
43.542
 20
341.456
 11
44.0438
 21
341.712
  0
LINE
  8
0
 10
44.0438
 20
341.712
 11
44.6
 21
341.8
  0
LINE
  8
0
 10
44.6
 20
341.8
 11
45.1562
 21
341.712
  0
LINE
  8
0
 10
45.1562
 20
341.712
 11
45.658
 21
341.456
  0
LINE
  8
0
 10
45.658
 20
341.456
 11
46.0562
 21
341.058
  0
LINE
  8
0
 10
46.0562
 20
341.058
 11
46.3119
 21
340.556
  0
LINE
  8
0
 10
46.3119
 20
340.556
 11
46.4
 21
340
  0
LINE
  8
0
 10
46.4
 20
340
 11
46.3119
 21
339.444
  0
LINE
  8
0
 10
46.3119
 20
339.444
 11
46.0562
 21
338.942
  0
LINE
  8
0
 10
46.0562
 20
338.942
 11
45.658
 21
338.544
  0
LINE
  8
0
 10
45.658
 20
338.544
 11
45.1562
 21
338.288
  0
LINE
  8
0
 10
45.1562
 20
338.288
 11
44.6
 21
338.2
  0
LINE
  8
0
 10
44.6
 20
338.2
 11
44.0438
 21
338.288
  0
LINE
  8
0
 10
331.344
 20
338.288
 11
330.842
 21
338.544
  0
LINE
  8
0
 10
330.842
 20
338.544
 11
330.444
 21
338.942
  0
LINE
  8
0
 10
330.444
 20
338.942
 11
330.188
 21
339.444
  0
LINE
  8
0
 10
330.188
 20
339.444
 11
330.1
 21
340
  0
LINE
  8
0
 10
330.1
 20
340
 11
330.188
 21
340.556
  0
LINE
  8
0
 10
330.188
 20
340.556
 11
330.444
 21
341.058
  0
LINE
  8
0
 10
330.444
 20
341.058
 11
330.842
 21
341.456
  0
LINE
  8
0
 10
330.842
 20
341.456
 11
331.344
 21
341.712
  0
LINE
  8
0
 10
331.344
 20
341.712
 11
331.9
 21
341.8
  0
LINE
  8
0
 10
331.9
 20
341.8
 11
332.456
 21
341.712
  0
LINE
  8
0
 10
332.456
 20
341.712
 11
332.958
 21
341.456
  0
LINE
  8
0
 10
332.958
 20
341.456
 11
333.356
 21
341.058
  0
LINE
  8
0
 10
333.356
 20
341.058
 11
333.612
 21
340.556
  0
LINE
  8
0
 10
333.612
 20
340.556
 11
333.7
 21
340
  0
LINE
  8
0
 10
333.7
 20
340
 11
333.612
 21
339.444
  0
LINE
  8
0
 10
333.612
 20
339.444
 11
333.356
 21
338.942
  0
LINE
  8
0
 10
333.356
 20
338.942
 11
332.958
 21
338.544
  0
LINE
  8
0
 10
332.958
 20
338.544
 11
332.456
 21
338.288
  0
LINE
  8
0
 10
332.456
 20
338.288
 11
331.9
 21
338.2
  0
LINE
  8
0
 10
331.9
 20
338.2
 11
331.344
 21
338.288
  0
LINE
  8
0
 10
165.253
 20
13.5
 11
145.753
 21
33
  0
LINE
  8
0
 10
145.753
 20
33
 11
111.463
 21
33
  0
LINE
  8
0
 10
111.463
 20
33
 11
108.25
 21
29.7868
  0
LINE
  8
0
 10
108.25
 20
29.7868
 11
108.25
 21
20
  0
LINE
  8
0
 10
108.25
 20
20
 11
108.005
 21
18.4549
  0
LINE
  8
0
 10
108.005
 20
18.4549
 11
107.295
 21
17.0611
  0
LINE
  8
0
 10
107.295
 20
17.0611
 11
106.189
 21
15.9549
  0
LINE
  8
0
 10
106.189
 20
15.9549
 11
104.795
 21
15.2447
  0
LINE
  8
0
 10
104.795
 20
15.2447
 11
103.25
 21
15
  0
LINE
  8
0
 10
103.25
 20
15
 11
101.705
 21
15.2447
  0
LINE
  8
0
 10
101.705
 20
15.2447
 11
100.311
 21
15.9549
  0
LINE
  8
0
 10
100.311
 20
15.9549
 11
99.2049
 21
17.0611
  0
LINE
  8
0
 10
99.2049
 20
17.0611
 11
98.4947
 21
18.4549
  0
LINE
  8
0
 10
98.4947
 20
18.4549
 11
98.25
 21
20
  0
LINE
  8
0
 10
98.25
 20
20
 11
98.25
 21
29.7868
  0
LINE
  8
0
 10
98.25
 20
29.7868
 11
88.0368
 21
40
  0
LINE
  8
0
 10
88.0368
 20
40
 11
63.1997
 21
40
  0
LINE
  8
0
 10
63.1997
 20
40
 11
58.25
 21
44.9497
  0
LINE
  8
0
 10
58.25
 20
44.9497
 11
58.25
 21
325.05
  0
LINE
  8
0
 10
58.25
 20
325.05
 11
63.1997
 21
330
  0
LINE
  8
0
 10
63.1997
 20
330
 11
313.3
 21
330
  0
LINE
  8
0
 10
313.3
 20
330
 11
318.25
 21
325.05
  0
LINE
  8
0
 10
318.25
 20
325.05
 11
318.25
 21
44.9497
  0
LINE
  8
0
 10
318.25
 20
44.9497
 11
313.3
 21
40
  0
LINE
  8
0
 10
313.3
 20
40
 11
288.463
 21
40
  0
LINE
  8
0
 10
288.463
 20
40
 11
278.25
 21
29.7868
  0
LINE
  8
0
 10
278.25
 20
29.7868
 11
278.25
 21
20
  0
LINE
  8
0
 10
278.25
 20
20
 11
278.005
 21
18.4549
  0
LINE
  8
0
 10
278.005
 20
18.4549
 11
277.295
 21
17.0611
  0
LINE
  8
0
 10
277.295
 20
17.0611
 11
276.189
 21
15.9549
  0
LINE
  8
0
 10
276.189
 20
15.9549
 11
274.795
 21
15.2447
  0
LINE
  8
0
 10
274.795
 20
15.2447
 11
273.25
 21
15
  0
LINE
  8
0
 10
273.25
 20
15
 11
271.705
 21
15.2447
  0
LINE
  8
0
 10
271.705
 20
15.2447
 11
270.311
 21
15.9549
  0
LINE
  8
0
 10
270.311
 20
15.9549
 11
269.205
 21
17.0611
  0
LINE
  8
0
 10
269.205
 20
17.0611
 11
268.495
 21
18.4549
  0
LINE
  8
0
 10
268.495
 20
18.4549
 11
268.25
 21
20
  0
LINE
  8
0
 10
268.25
 20
20
 11
268.25
 21
29.7868
  0
LINE
  8
0
 10
268.25
 20
29.7868
 11
265.037
 21
33
  0
LINE
  8
0
 10
265.037
 20
33
 11
230.747
 21
33
  0
LINE
  8
0
 10
230.747
 20
33
 11
211.247
 21
13.5
  0
LINE
  8
0
 10
211.247
 20
13.5
 11
165.253
 21
13.5
  0
LINE
  8
0
 10
326.8
 20
319.15
 11
326.8
 21
328.55
  0
LINE
  8
0
 10
326.8
 20
328.55
 11
337
 21
328.55
  0
LINE
  8
0
 10
337
 20
328.55
 11
337
 21
319.15
  0
LINE
  8
0
 10
337
 20
319.15
 11
326.8
 21
319.15
  0
LINE
  8
0
 10
39.5
 20
319.15
 11
39.5
 21
328.55
  0
LINE
  8
0
 10
39.5
 20
328.55
 11
49.7
 21
328.55
  0
LINE
  8
0
 10
49.7
 20
328.55
 11
49.7
 21
319.15
  0
LINE
  8
0
 10
49.7
 20
319.15
 11
39.5
 21
319.15
  0
LINE
  8
0
 10
326.8
 20
196.45
 11
326.8
 21
205.85
  0
LINE
  8
0
 10
326.8
 20
205.85
 11
337
 21
205.85
  0
LINE
  8
0
 10
337
 20
205.85
 11
337
 21
196.45
  0
LINE
  8
0
 10
337
 20
196.45
 11
326.8
 21
196.45
  0
LINE
  8
0
 10
39.5
 20
196.45
 11
39.5
 21
205.85
  0
LINE
  8
0
 10
39.5
 20
205.85
 11
49.7
 21
205.85
  0
LINE
  8
0
 10
49.7
 20
205.85
 11
49.7
 21
196.45
  0
LINE
  8
0
 10
49.7
 20
196.45
 11
39.5
 21
196.45
  0
LINE
  8
0
 10
331.344
 20
183.288
 11
330.842
 21
183.544
  0
LINE
  8
0
 10
330.842
 20
183.544
 11
330.444
 21
183.942
  0
LINE
  8
0
 10
330.444
 20
183.942
 11
330.188
 21
184.444
  0
LINE
  8
0
 10
330.188
 20
184.444
 11
330.1
 21
185
  0
LINE
  8
0
 10
330.1
 20
185
 11
330.188
 21
185.556
  0
LINE
  8
0
 10
330.188
 20
185.556
 11
330.444
 21
186.058
  0
LINE
  8
0
 10
330.444
 20
186.058
 11
330.842
 21
186.456
  0
LINE
  8
0
 10
330.842
 20
186.456
 11
331.344
 21
186.712
  0
LINE
  8
0
 10
331.344
 20
186.712
 11
331.9
 21
186.8
  0
LINE
  8
0
 10
331.9
 20
186.8
 11
332.456
 21
186.712
  0
LINE
  8
0
 10
332.456
 20
186.712
 11
332.958
 21
186.456
  0
LINE
  8
0
 10
332.958
 20
186.456
 11
333.356
 21
186.058
  0
LINE
  8
0
 10
333.356
 20
186.058
 11
333.612
 21
185.556
  0
LINE
  8
0
 10
333.612
 20
185.556
 11
333.7
 21
185
  0
LINE
  8
0
 10
333.7
 20
185
 11
333.612
 21
184.444
  0
LINE
  8
0
 10
333.612
 20
184.444
 11
333.356
 21
183.942
  0
LINE
  8
0
 10
333.356
 20
183.942
 11
332.958
 21
183.544
  0
LINE
  8
0
 10
332.958
 20
183.544
 11
332.456
 21
183.288
  0
LINE
  8
0
 10
332.456
 20
183.288
 11
331.9
 21
183.2
  0
LINE
  8
0
 10
331.9
 20
183.2
 11
331.344
 21
183.288
  0
LINE
  8
0
 10
44.0438
 20
183.288
 11
43.542
 21
183.544
  0
LINE
  8
0
 10
43.542
 20
183.544
 11
43.1438
 21
183.942
  0
LINE
  8
0
 10
43.1438
 20
183.942
 11
42.8881
 21
184.444
  0
LINE
  8
0
 10
42.8881
 20
184.444
 11
42.8
 21
185
  0
LINE
  8
0
 10
42.8
 20
185
 11
42.8881
 21
185.556
  0
LINE
  8
0
 10
42.8881
 20
185.556
 11
43.1438
 21
186.058
  0
LINE
  8
0
 10
43.1438
 20
186.058
 11
43.542
 21
186.456
  0
LINE
  8
0
 10
43.542
 20
186.456
 11
44.0438
 21
186.712
  0
LINE
  8
0
 10
44.0438
 20
186.712
 11
44.6
 21
186.8
  0
LINE
  8
0
 10
44.6
 20
186.8
 11
45.1562
 21
186.712
  0
LINE
  8
0
 10
45.1562
 20
186.712
 11
45.658
 21
186.456
  0
LINE
  8
0
 10
45.658
 20
186.456
 11
46.0562
 21
186.058
  0
LINE
  8
0
 10
46.0562
 20
186.058
 11
46.3119
 21
185.556
  0
LINE
  8
0
 10
46.3119
 20
185.556
 11
46.4
 21
185
  0
LINE
  8
0
 10
46.4
 20
185
 11
46.3119
 21
184.444
  0
LINE
  8
0
 10
46.3119
 20
184.444
 11
46.0562
 21
183.942
  0
LINE
  8
0
 10
46.0562
 20
183.942
 11
45.658
 21
183.544
  0
LINE
  8
0
 10
45.658
 20
183.544
 11
45.1562
 21
183.288
  0
LINE
  8
0
 10
45.1562
 20
183.288
 11
44.6
 21
183.2
  0
LINE
  8
0
 10
44.6
 20
183.2
 11
44.0438
 21
183.288
  0
LINE
  8
0
 10
326.8
 20
164.15
 11
326.8
 21
173.55
  0
LINE
  8
0
 10
326.8
 20
173.55
 11
337
 21
173.55
  0
LINE
  8
0
 10
337
 20
173.55
 11
337
 21
164.15
  0
LINE
  8
0
 10
337
 20
164.15
 11
326.8
 21
164.15
  0
LINE
  8
0
 10
39.5
 20
164.15
 11
39.5
 21
173.55
  0
LINE
  8
0
 10
39.5
 20
173.55
 11
49.7
 21
173.55
  0
LINE
  8
0
 10
49.7
 20
173.55
 11
49.7
 21
164.15
  0
LINE
  8
0
 10
49.7
 20
164.15
 11
39.5
 21
164.15
  0
LINE
  8
0
 10
39.5
 20
36.45
 11
39.5
 21
45.85
  0
LINE
  8
0
 10
39.5
 20
45.85
 11
49.7
 21
45.85
  0
LINE
  8
0
 10
49.7
 20
45.85
 11
49.7
 21
36.45
  0
LINE
  8
0
 10
49.7
 20
36.45
 11
39.5
 21
36.45
  0
LINE
  8
0
 10
326.8
 20
36.45
 11
326.8
 21
45.85
  0
LINE
  8
0
 10
326.8
 20
45.85
 11
337
 21
45.85
  0
LINE
  8
0
 10
337
 20
45.85
 11
337
 21
36.45
  0
LINE
  8
0
 10
337
 20
36.45
 11
326.8
 21
36.45
  0
LINE
  8
0
 10
345.882
 20
38.0979
 11
345.324
 21
38.382
  0
LINE
  8
0
 10
345.324
 20
38.382
 11
344.882
 21
38.8244
  0
LINE
  8
0
 10
344.882
 20
38.8244
 11
344.598
 21
39.382
  0
LINE
  8
0
 10
344.598
 20
39.382
 11
344.5
 21
40
  0
LINE
  8
0
 10
344.5
 20
40
 11
344.598
 21
40.618
  0
LINE
  8
0
 10
344.598
 20
40.618
 11
344.882
 21
41.1756
  0
LINE
  8
0
 10
344.882
 20
41.1756
 11
345.324
 21
41.618
  0
LINE
  8
0
 10
345.324
 20
41.618
 11
345.882
 21
41.9021
  0
LINE
  8
0
 10
345.882
 20
41.9021
 11
346.5
 21
42
  0
LINE
  8
0
 10
346.5
 20
42
 11
347.118
 21
41.9021
  0
LINE
  8
0
 10
347.118
 20
41.9021
 11
347.676
 21
41.618
  0
LINE
  8
0
 10
347.676
 20
41.618
 11
348.118
 21
41.1756
  0
LINE
  8
0
 10
348.118
 20
41.1756
 11
348.402
 21
40.618
  0
LINE
  8
0
 10
348.402
 20
40.618
 11
348.5
 21
40
  0
LINE
  8
0
 10
348.5
 20
40
 11
348.402
 21
39.382
  0
LINE
  8
0
 10
348.402
 20
39.382
 11
348.118
 21
38.8244
  0
LINE
  8
0
 10
348.118
 20
38.8244
 11
347.676
 21
38.382
  0
LINE
  8
0
 10
347.676
 20
38.382
 11
347.118
 21
38.0979
  0
LINE
  8
0
 10
347.118
 20
38.0979
 11
346.5
 21
38
  0
LINE
  8
0
 10
346.5
 20
38
 11
345.882
 21
38.0979
  0
LINE
  8
0
 10
365.882
 20
38.0979
 11
365.324
 21
38.382
  0
LINE
  8
0
 10
365.324
 20
38.382
 11
364.882
 21
38.8244
  0
LINE
  8
0
 10
364.882
 20
38.8244
 11
364.598
 21
39.382
  0
LINE
  8
0
 10
364.598
 20
39.382
 11
364.5
 21
40
  0
LINE
  8
0
 10
364.5
 20
40
 11
364.598
 21
40.618
  0
LINE
  8
0
 10
364.598
 20
40.618
 11
364.882
 21
41.1756
  0
LINE
  8
0
 10
364.882
 20
41.1756
 11
365.324
 21
41.618
  0
LINE
  8
0
 10
365.324
 20
41.618
 11
365.882
 21
41.9021
  0
LINE
  8
0
 10
365.882
 20
41.9021
 11
366.5
 21
42
  0
LINE
  8
0
 10
366.5
 20
42
 11
367.118
 21
41.9021
  0
LINE
  8
0
 10
367.118
 20
41.9021
 11
367.676
 21
41.618
  0
LINE
  8
0
 10
367.676
 20
41.618
 11
368.118
 21
41.1756
  0
LINE
  8
0
 10
368.118
 20
41.1756
 11
368.402
 21
40.618
  0
LINE
  8
0
 10
368.402
 20
40.618
 11
368.5
 21
40
  0
LINE
  8
0
 10
368.5
 20
40
 11
368.402
 21
39.382
  0
LINE
  8
0
 10
368.402
 20
39.382
 11
368.118
 21
38.8244
  0
LINE
  8
0
 10
368.118
 20
38.8244
 11
367.676
 21
38.382
  0
LINE
  8
0
 10
367.676
 20
38.382
 11
367.118
 21
38.0979
  0
LINE
  8
0
 10
367.118
 20
38.0979
 11
366.5
 21
38
  0
LINE
  8
0
 10
366.5
 20
38
 11
365.882
 21
38.0979
  0
LINE
  8
0
 10
29.382
 20
38.0979
 11
28.8244
 21
38.382
  0
LINE
  8
0
 10
28.8244
 20
38.382
 11
28.382
 21
38.8244
  0
LINE
  8
0
 10
28.382
 20
38.8244
 11
28.0979
 21
39.382
  0
LINE
  8
0
 10
28.0979
 20
39.382
 11
28
 21
40
  0
LINE
  8
0
 10
28
 20
40
 11
28.0979
 21
40.618
  0
LINE
  8
0
 10
28.0979
 20
40.618
 11
28.382
 21
41.1756
  0
LINE
  8
0
 10
28.382
 20
41.1756
 11
28.8244
 21
41.618
  0
LINE
  8
0
 10
28.8244
 20
41.618
 11
29.382
 21
41.9021
  0
LINE
  8
0
 10
29.382
 20
41.9021
 11
30
 21
42
  0
LINE
  8
0
 10
30
 20
42
 11
30.618
 21
41.9021
  0
LINE
  8
0
 10
30.618
 20
41.9021
 11
31.1756
 21
41.618
  0
LINE
  8
0
 10
31.1756
 20
41.618
 11
31.618
 21
41.1756
  0
LINE
  8
0
 10
31.618
 20
41.1756
 11
31.9021
 21
40.618
  0
LINE
  8
0
 10
31.9021
 20
40.618
 11
32
 21
40
  0
LINE
  8
0
 10
32
 20
40
 11
31.9021
 21
39.382
  0
LINE
  8
0
 10
31.9021
 20
39.382
 11
31.618
 21
38.8244
  0
LINE
  8
0
 10
31.618
 20
38.8244
 11
31.1756
 21
38.382
  0
LINE
  8
0
 10
31.1756
 20
38.382
 11
30.618
 21
38.0979
  0
LINE
  8
0
 10
30.618
 20
38.0979
 11
30
 21
38
  0
LINE
  8
0
 10
30
 20
38
 11
29.382
 21
38.0979
  0
LINE
  8
0
 10
9.38197
 20
38.0979
 11
8.82443
 21
38.382
  0
LINE
  8
0
 10
8.82443
 20
38.382
 11
8.38197
 21
38.8244
  0
LINE
  8
0
 10
8.38197
 20
38.8244
 11
8.0979
 21
39.382
  0
LINE
  8
0
 10
8.0979
 20
39.382
 11
8
 21
40
  0
LINE
  8
0
 10
8
 20
40
 11
8.0979
 21
40.618
  0
LINE
  8
0
 10
8.0979
 20
40.618
 11
8.38197
 21
41.1756
  0
LINE
  8
0
 10
8.38197
 20
41.1756
 11
8.82443
 21
41.618
  0
LINE
  8
0
 10
8.82443
 20
41.618
 11
9.38197
 21
41.9021
  0
LINE
  8
0
 10
9.38197
 20
41.9021
 11
10
 21
42
  0
LINE
  8
0
 10
10
 20
42
 11
10.618
 21
41.9021
  0
LINE
  8
0
 10
10.618
 20
41.9021
 11
11.1756
 21
41.618
  0
LINE
  8
0
 10
11.1756
 20
41.618
 11
11.618
 21
41.1756
  0
LINE
  8
0
 10
11.618
 20
41.1756
 11
11.9021
 21
40.618
  0
LINE
  8
0
 10
11.9021
 20
40.618
 11
12
 21
40
  0
LINE
  8
0
 10
12
 20
40
 11
11.9021
 21
39.382
  0
LINE
  8
0
 10
11.9021
 20
39.382
 11
11.618
 21
38.8244
  0
LINE
  8
0
 10
11.618
 20
38.8244
 11
11.1756
 21
38.382
  0
LINE
  8
0
 10
11.1756
 20
38.382
 11
10.618
 21
38.0979
  0
LINE
  8
0
 10
10.618
 20
38.0979
 11
10
 21
38
  0
LINE
  8
0
 10
10
 20
38
 11
9.38197
 21
38.0979
  0
LINE
  8
0
 10
44.0438
 20
23.2881
 11
43.542
 21
23.5438
  0
LINE
  8
0
 10
43.542
 20
23.5438
 11
43.1438
 21
23.942
  0
LINE
  8
0
 10
43.1438
 20
23.942
 11
42.8881
 21
24.4438
  0
LINE
  8
0
 10
42.8881
 20
24.4438
 11
42.8
 21
25
  0
LINE
  8
0
 10
42.8
 20
25
 11
42.8881
 21
25.5562
  0
LINE
  8
0
 10
42.8881
 20
25.5562
 11
43.1438
 21
26.058
  0
LINE
  8
0
 10
43.1438
 20
26.058
 11
43.542
 21
26.4562
  0
LINE
  8
0
 10
43.542
 20
26.4562
 11
44.0438
 21
26.7119
  0
LINE
  8
0
 10
44.0438
 20
26.7119
 11
44.6
 21
26.8
  0
LINE
  8
0
 10
44.6
 20
26.8
 11
45.1562
 21
26.7119
  0
LINE
  8
0
 10
45.1562
 20
26.7119
 11
45.658
 21
26.4562
  0
LINE
  8
0
 10
45.658
 20
26.4562
 11
46.0562
 21
26.058
  0
LINE
  8
0
 10
46.0562
 20
26.058
 11
46.3119
 21
25.5562
  0
LINE
  8
0
 10
46.3119
 20
25.5562
 11
46.4
 21
25
  0
LINE
  8
0
 10
46.4
 20
25
 11
46.3119
 21
24.4438
  0
LINE
  8
0
 10
46.3119
 20
24.4438
 11
46.0562
 21
23.942
  0
LINE
  8
0
 10
46.0562
 20
23.942
 11
45.658
 21
23.5438
  0
LINE
  8
0
 10
45.658
 20
23.5438
 11
45.1562
 21
23.2881
  0
LINE
  8
0
 10
45.1562
 20
23.2881
 11
44.6
 21
23.2
  0
LINE
  8
0
 10
44.6
 20
23.2
 11
44.0438
 21
23.2881
  0
LINE
  8
0
 10
331.344
 20
23.2881
 11
330.842
 21
23.5438
  0
LINE
  8
0
 10
330.842
 20
23.5438
 11
330.444
 21
23.942
  0
LINE
  8
0
 10
330.444
 20
23.942
 11
330.188
 21
24.4438
  0
LINE
  8
0
 10
330.188
 20
24.4438
 11
330.1
 21
25
  0
LINE
  8
0
 10
330.1
 20
25
 11
330.188
 21
25.5562
  0
LINE
  8
0
 10
330.188
 20
25.5562
 11
330.444
 21
26.058
  0
LINE
  8
0
 10
330.444
 20
26.058
 11
330.842
 21
26.4562
  0
LINE
  8
0
 10
330.842
 20
26.4562
 11
331.344
 21
26.7119
  0
LINE
  8
0
 10
331.344
 20
26.7119
 11
331.9
 21
26.8
  0
LINE
  8
0
 10
331.9
 20
26.8
 11
332.456
 21
26.7119
  0
LINE
  8
0
 10
332.456
 20
26.7119
 11
332.958
 21
26.4562
  0
LINE
  8
0
 10
332.958
 20
26.4562
 11
333.356
 21
26.058
  0
LINE
  8
0
 10
333.356
 20
26.058
 11
333.612
 21
25.5562
  0
LINE
  8
0
 10
333.612
 20
25.5562
 11
333.7
 21
25
  0
LINE
  8
0
 10
333.7
 20
25
 11
333.612
 21
24.4438
  0
LINE
  8
0
 10
333.612
 20
24.4438
 11
333.356
 21
23.942
  0
LINE
  8
0
 10
333.356
 20
23.942
 11
332.958
 21
23.5438
  0
LINE
  8
0
 10
332.958
 20
23.5438
 11
332.456
 21
23.2881
  0
LINE
  8
0
 10
332.456
 20
23.2881
 11
331.9
 21
23.2
  0
LINE
  8
0
 10
331.9
 20
23.2
 11
331.344
 21
23.2881
  0
LINE
  8
0
 10
355.944
 20
18.2881
 11
355.442
 21
18.5438
  0
LINE
  8
0
 10
355.442
 20
18.5438
 11
355.044
 21
18.942
  0
LINE
  8
0
 10
355.044
 20
18.942
 11
354.788
 21
19.4438
  0
LINE
  8
0
 10
354.788
 20
19.4438
 11
354.7
 21
20
  0
LINE
  8
0
 10
354.7
 20
20
 11
354.788
 21
20.5562
  0
LINE
  8
0
 10
354.788
 20
20.5562
 11
355.044
 21
21.058
  0
LINE
  8
0
 10
355.044
 20
21.058
 11
355.442
 21
21.4562
  0
LINE
  8
0
 10
355.442
 20
21.4562
 11
355.944
 21
21.7119
  0
LINE
  8
0
 10
355.944
 20
21.7119
 11
356.5
 21
21.8
  0
LINE
  8
0
 10
356.5
 20
21.8
 11
357.056
 21
21.7119
  0
LINE
  8
0
 10
357.056
 20
21.7119
 11
357.558
 21
21.4562
  0
LINE
  8
0
 10
357.558
 20
21.4562
 11
357.956
 21
21.058
  0
LINE
  8
0
 10
357.956
 20
21.058
 11
358.212
 21
20.5562
  0
LINE
  8
0
 10
358.212
 20
20.5562
 11
358.3
 21
20
  0
LINE
  8
0
 10
358.3
 20
20
 11
358.212
 21
19.4438
  0
LINE
  8
0
 10
358.212
 20
19.4438
 11
357.956
 21
18.942
  0
LINE
  8
0
 10
357.956
 20
18.942
 11
357.558
 21
18.5438
  0
LINE
  8
0
 10
357.558
 20
18.5438
 11
357.056
 21
18.2881
  0
LINE
  8
0
 10
357.056
 20
18.2881
 11
356.5
 21
18.2
  0
LINE
  8
0
 10
356.5
 20
18.2
 11
355.944
 21
18.2881
  0
LINE
  8
0
 10
19.4438
 20
18.2881
 11
18.942
 21
18.5438
  0
LINE
  8
0
 10
18.942
 20
18.5438
 11
18.5438
 21
18.942
  0
LINE
  8
0
 10
18.5438
 20
18.942
 11
18.2881
 21
19.4438
  0
LINE
  8
0
 10
18.2881
 20
19.4438
 11
18.2
 21
20
  0
LINE
  8
0
 10
18.2
 20
20
 11
18.2881
 21
20.5562
  0
LINE
  8
0
 10
18.2881
 20
20.5562
 11
18.5438
 21
21.058
  0
LINE
  8
0
 10
18.5438
 20
21.058
 11
18.942
 21
21.4562
  0
LINE
  8
0
 10
18.942
 20
21.4562
 11
19.4438
 21
21.7119
  0
LINE
  8
0
 10
19.4438
 20
21.7119
 11
20
 21
21.8
  0
LINE
  8
0
 10
20
 20
21.8
 11
20.5562
 21
21.7119
  0
LINE
  8
0
 10
20.5562
 20
21.7119
 11
21.058
 21
21.4562
  0
LINE
  8
0
 10
21.058
 20
21.4562
 11
21.4562
 21
21.058
  0
LINE
  8
0
 10
21.4562
 20
21.058
 11
21.7119
 21
20.5562
  0
LINE
  8
0
 10
21.7119
 20
20.5562
 11
21.8
 21
20
  0
LINE
  8
0
 10
21.8
 20
20
 11
21.7119
 21
19.4438
  0
LINE
  8
0
 10
21.7119
 20
19.4438
 11
21.4562
 21
18.942
  0
LINE
  8
0
 10
21.4562
 20
18.942
 11
21.058
 21
18.5438
  0
LINE
  8
0
 10
21.058
 20
18.5438
 11
20.5562
 21
18.2881
  0
LINE
  8
0
 10
20.5562
 20
18.2881
 11
20
 21
18.2
  0
LINE
  8
0
 10
20
 20
18.2
 11
19.4438
 21
18.2881
  0
LINE
  8
0
 10
352.5
 20
6
 11
351.264
 21
6.19579
  0
LINE
  8
0
 10
351.264
 20
6.19579
 11
350.149
 21
6.76395
  0
LINE
  8
0
 10
350.149
 20
6.76395
 11
349.264
 21
7.64886
  0
LINE
  8
0
 10
349.264
 20
7.64886
 11
348.696
 21
8.76395
  0
LINE
  8
0
 10
348.696
 20
8.76395
 11
348.5
 21
10
  0
LINE
  8
0
 10
348.5
 20
10
 11
348.696
 21
11.2361
  0
LINE
  8
0
 10
348.696
 20
11.2361
 11
349.264
 21
12.3512
  0
LINE
  8
0
 10
349.264
 20
12.3512
 11
350.149
 21
13.2361
  0
LINE
  8
0
 10
350.149
 20
13.2361
 11
351.264
 21
13.8042
  0
LINE
  8
0
 10
351.264
 20
13.8042
 11
352.5
 21
14
  0
LINE
  8
0
 10
352.5
 20
14
 11
360.5
 21
14
  0
LINE
  8
0
 10
360.5
 20
14
 11
361.736
 21
13.8042
  0
LINE
  8
0
 10
361.736
 20
13.8042
 11
362.851
 21
13.2361
  0
LINE
  8
0
 10
362.851
 20
13.2361
 11
363.736
 21
12.3512
  0
LINE
  8
0
 10
363.736
 20
12.3512
 11
364.304
 21
11.2361
  0
LINE
  8
0
 10
364.304
 20
11.2361
 11
364.5
 21
10
  0
LINE
  8
0
 10
364.5
 20
10
 11
364.304
 21
8.76395
  0
LINE
  8
0
 10
364.304
 20
8.76395
 11
363.736
 21
7.64886
  0
LINE
  8
0
 10
363.736
 20
7.64886
 11
362.851
 21
6.76395
  0
LINE
  8
0
 10
362.851
 20
6.76395
 11
361.736
 21
6.19579
  0
LINE
  8
0
 10
361.736
 20
6.19579
 11
360.5
 21
6
  0
LINE
  8
0
 10
360.5
 20
6
 11
352.5
 21
6
  0
LINE
  8
0
 10
16
 20
6
 11
14.7639
 21
6.19579
  0
LINE
  8
0
 10
14.7639
 20
6.19579
 11
13.6489
 21
6.76395
  0
LINE
  8
0
 10
13.6489
 20
6.76395
 11
12.7639
 21
7.64886
  0
LINE
  8
0
 10
12.7639
 20
7.64886
 11
12.1958
 21
8.76395
  0
LINE
  8
0
 10
12.1958
 20
8.76395
 11
12
 21
10
  0
LINE
  8
0
 10
12
 20
10
 11
12.1958
 21
11.2361
  0
LINE
  8
0
 10
12.1958
 20
11.2361
 11
12.7639
 21
12.3512
  0
LINE
  8
0
 10
12.7639
 20
12.3512
 11
13.6489
 21
13.2361
  0
LINE
  8
0
 10
13.6489
 20
13.2361
 11
14.7639
 21
13.8042
  0
LINE
  8
0
 10
14.7639
 20
13.8042
 11
16
 21
14
  0
LINE
  8
0
 10
16
 20
14
 11
24
 21
14
  0
LINE
  8
0
 10
24
 20
14
 11
25.2361
 21
13.8042
  0
LINE
  8
0
 10
25.2361
 20
13.8042
 11
26.3511
 21
13.2361
  0
LINE
  8
0
 10
26.3511
 20
13.2361
 11
27.2361
 21
12.3512
  0
LINE
  8
0
 10
27.2361
 20
12.3512
 11
27.8042
 21
11.2361
  0
LINE
  8
0
 10
27.8042
 20
11.2361
 11
28
 21
10
  0
LINE
  8
0
 10
28
 20
10
 11
27.8042
 21
8.76395
  0
LINE
  8
0
 10
27.8042
 20
8.76395
 11
27.2361
 21
7.64886
  0
LINE
  8
0
 10
27.2361
 20
7.64886
 11
26.3511
 21
6.76395
  0
LINE
  8
0
 10
26.3511
 20
6.76395
 11
25.2361
 21
6.19579
  0
LINE
  8
0
 10
25.2361
 20
6.19579
 11
24
 21
6
  0
LINE
  8
0
 10
24
 20
6
 11
16
 21
6
  0
ENDSEC
  0
SECTION
  2
OBJECTS
  0
DICTIONARY
  0
ENDSEC
  0
EOF
